<svg xmlns="http://www.w3.org/2000/svg" viewBox="0 0 50 50">
  <path d="M6 2C5.449219 2 5 2.449219 5 3L5 39C5 39.554688 5.449219 40 6 40C18.058594 40 22.824219 42.683594 24 43.5L24 6.65625C21.53125 4.746094 16.21875 2 6 2 Z M 44 2C33.78125 2 28.46875 4.746094 26 6.65625L26 43.5C27.175781 42.683594 31.945313 40 44 40C44.554688 40 45 39.554688 45 39L45 3C45 2.449219 44.554688 2 44 2 Z M 2.84375 8C1.273438 8 0 9.273438 0 10.84375L0 44.15625C0 45.726563 1.273438 47 2.84375 47L19.46875 47C20.179688 47.980469 21.996094 50 25 50C28.003906 50 29.820313 47.980469 30.53125 47L47.15625 47C48.726563 47 50 45.730469 50 44.15625L50 10.84375C50 9.273438 48.726563 8 47.15625 8L47 8L47 39C47 40.652344 45.652344 42 44 42C32.25 42 27.878906 44.601563 27.125 45.125L27 45.25C26.304688 45.800781 25.984375 46.6875 25.03125 46.6875C24.078125 46.6875 23.917969 45.886719 23.09375 45.3125L22.875 45.125C22.121094 44.601563 17.757813 42 6 42C4.347656 42 3 40.652344 3 39L3 8Z" fill="#FAFAEC" />
</svg>